<svg width="1084" height="1216" viewBox="0 0 1084 1216" xmlns:xlink="http://www.w3.org/1999/xlink" xmlns="http://www.w3.org/2000/svg"><defs/><g transform="translate(-22.67,-58.00)"><path d="M397.0,145.8C403.7,145.8,409.0,140.4,409.0,133.8L409.0,12.0C409.0,5.4,403.7,.0,397.0,.0L12.0,.0C5.4,.0,.0,5.4,.0,12.0L.0,133.8C.0,140.4,5.4,145.8,12.0,145.8L397.0,145.8z" id="shape1" fill="#00b050" transform="translate(76.000000,137.250000)" fill-rule="nonzero"/><path stroke-width="1" fill-opacity="0.44" d="M501.0,308.0L501.0,11.0C501.0,4.9,496.1,.0,490.0,.0L11.0,.0C4.9,.0,.0,4.9,.0,11.0L.0,308.0C.0,314.1,4.9,319.0,11.0,319.0L490.0,319.0C496.1,319.0,501.0,314.1,501.0,308.0z" id="shape2" fill="#0070c0" stroke="#101843" transform="translate(605.000000,59.000000)" fill-rule="nonzero"/><g id="shape3" transform="translate(778.500000,91.000000)"><path stroke-width="1" d="M.0,84.0L84.0,.0L168.0,84.0L84.0,168.0L.0,84.0z" fill="#ffffff" stroke="#101843" fill-rule="nonzero"/><text style="fill:#ffffff;font-family:Times New Roman,PingFang SC,Mircrosoft YaHei,Arial;font-size:12.00pt;font-weight:bold" xml:space="preserve"><tspan y="90.0" style="fill:#000000;font-family:Times New Roman,PingFang SC,Mircrosoft YaHei,Arial" x="4.5">Training Stage k = 1...K</tspan></text></g><g id="shape4" transform="translate(633.000000,283.000000)"><path stroke-width="1" d="M156.0,76.0C162.6,76.0,168.0,70.6,168.0,64.0L168.0,12.0C168.0,5.4,162.6,.0,156.0,.0L12.0,.0C5.4,.0,.0,5.4,.0,12.0L.0,64.0C.0,70.6,5.4,76.0,12.0,76.0L156.0,76.0z" fill="#ffffff" stroke="#101843" fill-rule="nonzero"/><text style="fill:#ffffff;font-family:Times New Roman,PingFang SC,Mircrosoft YaHei,Arial;font-size:12.00pt;font-weight:bold" xml:space="preserve"><tspan y="24.0" style="fill:#000000;font-family:Times New Roman,PingFang SC,Mircrosoft YaHei,Arial" x="27.0">Parameter Space </tspan><tspan y="44.0" style="fill:#000000;font-family:Times New Roman,PingFang SC,Mircrosoft YaHei,Arial" x="23.0">Expansion (Range </tspan><tspan y="64.0" style="fill:#000000;font-family:Times New Roman,PingFang SC,Mircrosoft YaHei,Arial" x="56.5">Control)</tspan></text></g><g id="shape5" transform="translate(918.000000,283.000000)"><path stroke-width="1" d="M156.0,76.0C162.6,76.0,168.0,70.6,168.0,64.0L168.0,12.0C168.0,5.4,162.6,.0,156.0,.0L12.0,.0C5.4,.0,.0,5.4,.0,12.0L.0,64.0C.0,70.6,5.4,76.0,12.0,76.0L156.0,76.0z" fill="#ffffff" stroke="#101843" fill-rule="nonzero"/><text style="fill:#ffffff;font-family:Times New Roman,PingFang SC,Mircrosoft YaHei,Arial;font-size:12.00pt;font-weight:bold" xml:space="preserve"><tspan y="34.0" style="fill:#000000;font-family:Times New Roman,PingFang SC,Mircrosoft YaHei,Arial" x="31.5">Noise Injection </tspan><tspan y="54.0" style="fill:#000000;font-family:Times New Roman,PingFang SC,Mircrosoft YaHei,Arial" x="9.5">(Stochasticity Control)</tspan></text></g><g id="shape6" transform="translate(596.250000,59.000000)"><text style="fill:#ffffff;font-family:Times New Roman,PingFang SC,Mircrosoft YaHei,Arial;font-size:14.00pt;font-weight:bold" xml:space="preserve"><tspan y="26.5" style="fill:#000000;font-family:Times New Roman,PingFang SC,Mircrosoft YaHei,Arial" x="36.3">Curriculum Learning Strategy</tspan></text></g><g id="shape7" transform="translate(302.000400,176.750000)"><path stroke-width="1" d="M155.5,76.0C162.1,76.0,167.5,70.6,167.5,64.0L167.5,12.0C167.5,5.4,162.1,.0,155.5,.0L12.0,.0C5.4,.0,.0,5.4,.0,12.0L.0,64.0C.0,70.6,5.4,76.0,12.0,76.0L155.5,76.0z" fill="#ffffff" stroke="#101843" fill-rule="nonzero"/><text style="fill:#ffffff;font-family:Times New Roman,PingFang SC,Mircrosoft YaHei,Arial;font-size:12.00pt;font-weight:bold" xml:space="preserve"><tspan y="34.0" style="fill:#000000;font-family:Times New Roman,PingFang SC,Mircrosoft YaHei,Arial" x="20.8">Experimental Data </tspan><tspan y="54.0" style="fill:#000000;font-family:Times New Roman,PingFang SC,Mircrosoft YaHei,Arial" x="37.3">(P_exp Trace)</tspan></text></g><g id="shape8" transform="translate(91.513600,176.750000)"><path stroke-width="1" d="M179.5,76.0C186.1,76.0,191.5,70.6,191.5,64.0L191.5,12.0C191.5,5.4,186.1,.0,179.5,.0L12.0,.0C5.4,.0,.0,5.4,.0,12.0L.0,64.0C.0,70.6,5.4,76.0,12.0,76.0L179.5,76.0z" fill="#ffffff" stroke="#101843" fill-rule="nonzero"/><text style="fill:#ffffff;font-family:Times New Roman,PingFang SC,Mircrosoft YaHei,Arial;font-size:12.00pt;font-weight:bold" xml:space="preserve"><tspan y="34.0" style="fill:#000000;font-family:Times New Roman,PingFang SC,Mircrosoft YaHei,Arial" x="24.7">Operating Conditions </tspan><tspan y="54.0" style="fill:#000000;font-family:Times New Roman,PingFang SC,Mircrosoft YaHei,Arial" x="4.7">(RPM, MAP, Lambda, Tin)</tspan></text></g><g id="shape9" transform="translate(76.000000,126.750000)"><text style="fill:#ffffff;font-family:Times New Roman,PingFang SC,Mircrosoft YaHei,Arial;font-size:14.00pt;font-weight:bold" xml:space="preserve"><tspan y="31.5" style="fill:#000000;font-family:Times New Roman,PingFang SC,Mircrosoft YaHei,Arial" x="13.5">System Inputs</tspan></text></g><path d="M431.0,420.0L431.0,11.0C431.0,4.9,426.1,.0,420.0,.0L11.0,.0C4.9,.0,.0,4.9,.0,11.0L.0,420.0C.0,426.1,4.9,431.0,11.0,431.0L420.0,431.0C426.1,431.0,431.0,426.1,431.0,420.0z" id="shape10" fill="#379e90" transform="translate(54.026000,491.000000)" fill-rule="nonzero"/><g id="shape11" transform="translate(54.026200,485.000000)"><text style="fill:#ffffff;font-family:Times New Roman,PingFang SC,Mircrosoft YaHei,Arial;font-size:14.00pt;font-weight:bold" xml:space="preserve"><tspan y="37.5" style="font-family:Times New Roman,PingFang SC,Mircrosoft YaHei,Arial" x="19.5">PPO Agent</tspan></text></g><g id="shape12" transform="translate(105.266000,566.000000)"><path stroke-width="1" d="M290.0,76.0C296.6,76.0,302.0,70.6,302.0,64.0L302.0,12.0C302.0,5.4,296.6,.0,290.0,.0L12.0,.0C5.4,.0,.0,5.4,.0,12.0L.0,64.0C.0,70.6,5.4,76.0,12.0,76.0L290.0,76.0z" fill="#ffffff" stroke="#101843" fill-rule="nonzero"/><text style="fill:#ffffff;font-family:Times New Roman,PingFang SC,Mircrosoft YaHei,Arial;font-size:12.00pt;font-weight:bold" xml:space="preserve"><tspan y="34.0" style="fill:#000000;font-family:Times New Roman,PingFang SC,Mircrosoft YaHei,Arial" x="77.0">Enhanced State Space</tspan><tspan y="54.0" style="fill:#000000;font-family:Times New Roman,PingFang SC,Mircrosoft YaHei,Arial" x="16.5"> (P_norm, dP/dtheta, CHR, Prev_Action)</tspan></text></g><g id="shape13" transform="translate(138.266000,698.000000)"><path stroke-width="1" d="M224.0,76.0C230.6,76.0,236.0,70.6,236.0,64.0L236.0,12.0C236.0,5.4,230.6,.0,224.0,.0L12.0,.0C5.4,.0,.0,5.4,.0,12.0L.0,64.0C.0,70.6,5.4,76.0,12.0,76.0L224.0,76.0z" fill="#ffffff" stroke="#101843" fill-rule="nonzero"/><text style="fill:#ffffff;font-family:Times New Roman,PingFang SC,Mircrosoft YaHei,Arial;font-size:12.00pt;font-weight:bold" xml:space="preserve"><tspan y="34.0" style="fill:#000000;font-family:Times New Roman,PingFang SC,Mircrosoft YaHei,Arial" x="38.5">Neural Networks Policy</tspan><tspan y="54.0" style="fill:#000000;font-family:Times New Roman,PingFang SC,Mircrosoft YaHei,Arial" x="21.0"> (Actor) &amp;amp; Value (Critic)</tspan></text></g><g id="shape14" transform="translate(114.766000,812.000000)"><path stroke-width="1" d="M271.0,76.0C277.6,76.0,283.0,70.6,283.0,64.0L283.0,12.0C283.0,5.4,277.6,.0,271.0,.0L12.0,.0C5.4,.0,.0,5.4,.0,12.0L.0,64.0C.0,70.6,5.4,76.0,12.0,76.0L271.0,76.0z" fill="#ffffff" stroke="#101843" fill-rule="nonzero"/><text style="fill:#ffffff;font-family:Times New Roman,PingFang SC,Mircrosoft YaHei,Arial;font-size:12.00pt;font-weight:bold" xml:space="preserve"><tspan y="34.0" style="fill:#000000;font-family:Times New Roman,PingFang SC,Mircrosoft YaHei,Arial" x="75.5">Action / Parameters</tspan><tspan y="54.0" style="fill:#000000;font-family:Times New Roman,PingFang SC,Mircrosoft YaHei,Arial" x="18.0"> (Wiebe Coeffs, Heat Transfer Scale)</tspan></text></g><path fill-opacity="0.54" d="M443.7,294.0C450.4,294.0,455.7,288.6,455.7,282.0L455.7,12.0C455.7,5.4,450.4,.0,443.7,.0L12.0,.0C5.4,.0,.0,5.4,.0,12.0L.0,282.0C.0,288.6,5.4,294.0,12.0,294.0L443.7,294.0z" id="shape15" fill="#00b050" transform="translate(650.256000,566.000000)" fill-rule="nonzero"/><g id="shape16" transform="translate(906.000000,560.000000)"><text style="fill:#ffffff;font-family:Times New Roman,PingFang SC,Mircrosoft YaHei,Arial;font-size:14.00pt;font-weight:bold" xml:space="preserve"><tspan y="26.0" style="fill:#000000;font-family:Times New Roman,PingFang SC,Mircrosoft YaHei,Arial" x="19.0">0D Thermodynamic </tspan><tspan y="49.0" style="fill:#000000;font-family:Times New Roman,PingFang SC,Mircrosoft YaHei,Arial" x="47.5">Environment</tspan></text></g><g id="shape17" transform="translate(711.000000,668.500000)"><path stroke-width="1" d="M241.0,76.0C247.6,76.0,253.0,70.6,253.0,64.0L253.0,12.0C253.0,5.4,247.6,.0,241.0,.0L12.0,.0C5.4,.0,.0,5.4,.0,12.0L.0,64.0C.0,70.6,5.4,76.0,12.0,76.0L241.0,76.0z" fill="#ffffff" stroke="#101843" fill-rule="nonzero"/><text style="fill:#ffffff;font-family:Times New Roman,PingFang SC,Mircrosoft YaHei,Arial;font-size:12.00pt;font-weight:bold" xml:space="preserve"><tspan y="34.0" style="fill:#000000;font-family:Times New Roman,PingFang SC,Mircrosoft YaHei,Arial" x="33.0">1st Law of Thermodynamics </tspan><tspan y="54.0" style="fill:#000000;font-family:Times New Roman,PingFang SC,Mircrosoft YaHei,Arial" x="55.0">(Pressure Simulation)</tspan></text></g><g id="shape18" transform="translate(699.000000,585.000000)"><path stroke-width="1" d="M181.0,57.0C187.6,57.0,193.0,51.6,193.0,45.0L193.0,12.0C193.0,5.4,187.6,.0,181.0,.0L12.0,.0C5.4,.0,.0,5.4,.0,12.0L.0,45.0C.0,51.6,5.4,57.0,12.0,57.0L181.0,57.0z" fill="#ffffff" stroke="#101843" fill-rule="nonzero"/><text style="fill:#ffffff;font-family:Times New Roman,PingFang SC,Mircrosoft YaHei,Arial;font-size:12.00pt;font-weight:bold" xml:space="preserve"><tspan y="24.5" style="fill:#000000;font-family:Times New Roman,PingFang SC,Mircrosoft YaHei,Arial" x="25.0">Double Wiebe Model</tspan><tspan y="44.5" style="fill:#000000;font-family:Times New Roman,PingFang SC,Mircrosoft YaHei,Arial" x="19.0"> (Premixed + Diffusive)</tspan></text></g><g id="shape19" transform="translate(699.000000,770.999600)"><path stroke-width="1" d="M181.0,60.7C187.6,60.7,193.0,55.3,193.0,48.7L193.0,12.0C193.0,5.4,187.6,.0,181.0,.0L12.0,.0C5.4,.0,.0,5.4,.0,12.0L.0,48.7C.0,55.3,5.4,60.7,12.0,60.7L181.0,60.7z" fill="#ffffff" stroke="#101843" fill-rule="nonzero"/><text style="fill:#ffffff;font-family:Times New Roman,PingFang SC,Mircrosoft YaHei,Arial;font-size:12.00pt;font-weight:bold" xml:space="preserve"><tspan y="26.4" style="fill:#000000;font-family:Times New Roman,PingFang SC,Mircrosoft YaHei,Arial" x="12.0">Modified Woschni Model </tspan><tspan y="46.4" style="fill:#000000;font-family:Times New Roman,PingFang SC,Mircrosoft YaHei,Arial" x="12.5">(Adaptive Heat Transfer)</tspan></text></g><g id="shape20" transform="translate(991.000000,656.000000)"><path stroke-width="1" d="M83.0,116.0C89.6,116.0,95.0,110.6,95.0,104.0L95.0,12.0C95.0,5.4,89.6,.0,83.0,.0L12.0,.0C5.4,.0,.0,5.4,.0,12.0L.0,104.0C.0,110.6,5.4,116.0,12.0,116.0L83.0,116.0z" fill="#ffffff" stroke="#101843" fill-rule="nonzero"/><text style="fill:#ffffff;font-family:Times New Roman,PingFang SC,Mircrosoft YaHei,Arial;font-size:12.00pt;font-weight:bold" xml:space="preserve"><tspan y="44.0" style="fill:#000000;font-family:Times New Roman,PingFang SC,Mircrosoft YaHei,Arial" x="16.0">Predicted </tspan><tspan y="64.0" style="fill:#000000;font-family:Times New Roman,PingFang SC,Mircrosoft YaHei,Arial" x="18.0">Pressure </tspan><tspan y="84.0" style="fill:#000000;font-family:Times New Roman,PingFang SC,Mircrosoft YaHei,Arial" x="22.5">(P_sim)</tspan></text></g><path d="M546.0,268.2C552.6,268.2,558.0,262.8,558.0,256.2L558.0,12.0C558.0,5.4,552.6,.0,546.0,.0L12.0,.0C5.4,.0,.0,5.4,.0,12.0L.0,256.2C.0,262.8,5.4,268.2,12.0,268.2L546.0,268.2z" id="shape21" fill="#ffd78e" transform="translate(319.026000,951.997000)" fill-rule="nonzero"/><g id="shape22" transform="translate(305.999800,952.000000)"><text style="fill:#ffffff;font-family:Times New Roman,PingFang SC,Mircrosoft YaHei,Arial;font-size:14.00pt;font-weight:bold" xml:space="preserve"><tspan y="20.0" style="fill:#000000;font-family:Times New Roman,PingFang SC,Mircrosoft YaHei,Arial" x="26.5">Optimization &amp; </tspan><tspan y="43.0" style="fill:#000000;font-family:Times New Roman,PingFang SC,Mircrosoft YaHei,Arial" x="57.0">Reward</tspan></text></g><g id="shape23" transform="translate(353.026200,1005.000000)"><path stroke-width="1" d="M179.0,76.0C185.6,76.0,191.0,70.6,191.0,64.0L191.0,12.0C191.0,5.4,185.6,.0,179.0,.0L12.0,.0C5.4,.0,.0,5.4,.0,12.0L.0,64.0C.0,70.6,5.4,76.0,12.0,76.0L179.0,76.0z" fill="#ffffff" stroke="#101843" fill-rule="nonzero"/><text style="fill:#ffffff;font-family:Times New Roman,PingFang SC,Mircrosoft YaHei,Arial;font-size:12.00pt;font-weight:bold" xml:space="preserve"><tspan y="34.0" style="fill:#000000;font-family:Times New Roman,PingFang SC,Mircrosoft YaHei,Arial" x="36.0">Accuracy Metrics</tspan><tspan y="54.0" style="fill:#000000;font-family:Times New Roman,PingFang SC,Mircrosoft YaHei,Arial" x="19.0"> (NRMSE, R-Squared)</tspan></text></g><g id="shape24" transform="translate(626.000000,1005.000000)"><path stroke-width="1" d="M200.0,76.0C206.6,76.0,212.0,70.6,212.0,64.0L212.0,12.0C212.0,5.4,206.6,.0,200.0,.0L12.0,.0C5.4,.0,.0,5.4,.0,12.0L.0,64.0C.0,70.6,5.4,76.0,12.0,76.0L200.0,76.0z" fill="#ffffff" stroke="#101843" fill-rule="nonzero"/><text style="fill:#ffffff;font-family:Times New Roman,PingFang SC,Mircrosoft YaHei,Arial;font-size:12.00pt;font-weight:bold" xml:space="preserve"><tspan y="24.0" style="fill:#000000;font-family:Times New Roman,PingFang SC,Mircrosoft YaHei,Arial" x="36.0">Physical Constraints </tspan><tspan y="44.0" style="fill:#000000;font-family:Times New Roman,PingFang SC,Mircrosoft YaHei,Arial" x="14.5">(Peak P, Temp, CA50, Burn </tspan><tspan y="64.0" style="fill:#000000;font-family:Times New Roman,PingFang SC,Mircrosoft YaHei,Arial" x="87.0">Rate)</tspan></text></g><g id="shape25" transform="translate(353.026200,1118.000000)"><path stroke-width="1" d="M179.0,76.0C185.6,76.0,191.0,70.6,191.0,64.0L191.0,12.0C191.0,5.4,185.6,.0,179.0,.0L12.0,.0C5.4,.0,.0,5.4,.0,12.0L.0,64.0C.0,70.6,5.4,76.0,12.0,76.0L179.0,76.0z" fill="#ffffff" stroke="#101843" fill-rule="nonzero"/><text style="fill:#ffffff;font-family:Times New Roman,PingFang SC,Mircrosoft YaHei,Arial;font-size:12.00pt;font-weight:bold" xml:space="preserve"><tspan y="44.0" style="fill:#000000;font-family:Times New Roman,PingFang SC,Mircrosoft YaHei,Arial" x="28.0">Total Reward Signal</tspan></text></g><g id="shape26" transform="translate(629.500000,1118.000000)"><path stroke-width="1" d="M193.0,76.0C199.6,76.0,205.0,70.6,205.0,64.0L205.0,12.0C205.0,5.4,199.6,.0,193.0,.0L12.0,.0C5.4,.0,.0,5.4,.0,12.0L.0,64.0C.0,70.6,5.4,76.0,12.0,76.0L193.0,76.0z" fill="#ffffff" stroke="#101843" fill-rule="nonzero"/><text style="fill:#ffffff;font-family:Times New Roman,PingFang SC,Mircrosoft YaHei,Arial;font-size:12.00pt;font-weight:bold" xml:space="preserve"><tspan y="34.0" style="fill:#000000;font-family:Times New Roman,PingFang SC,Mircrosoft YaHei,Arial" x="47.0">Gradient Update </tspan><tspan y="54.0" style="fill:#000000;font-family:Times New Roman,PingFang SC,Mircrosoft YaHei,Arial" x="40.5">(Backpropagation)</tspan></text></g><g id="shape27" transform="translate(778.500000,175.000000)"><path stroke-width="1" d="M.0,.0L-61.0,.0L-61.0,102.0" stroke="#191919" fill="none"/><path stroke-width="1" d="M-58.0,102.0L-61.0,108.0L-64.0,102.0L-58.0,102.0" stroke-linecap="round" fill="#191919" stroke="#191919"/></g><g id="shape28" transform="translate(946.500000,175.000000)"><path stroke-width="1" d="M.0,.0L65.2,.0L65.2,102.0" stroke="#191919" fill="none"/><path stroke-width="1" d="M68.2,102.0L65.2,108.0L62.2,102.0L68.2,102.0" stroke-linecap="round" fill="#191919" stroke="#191919"/></g><g id="shape29" transform="translate(256.266000,642.000000)"><path stroke-width="1" d="M.0,.0L.0,50.0" stroke="#191919" fill="none"/><path stroke-width="1" d="M3.0,50.0L.0,56.0L-3.0,50.0L3.0,50.0" stroke-linecap="round" fill="#191919" stroke="#191919"/></g><g id="shape30" transform="translate(256.266000,774.000000)"><path stroke-width="1" d="M.0,.0L.0,33.0" stroke="#191919" fill="none"/><path stroke-width="1" d="M3.0,33.0L.0,39.0L-3.0,33.0L3.0,33.0" stroke-linecap="round" fill="#191919" stroke="#191919"/></g><g id="shape31" transform="translate(192.114000,252.750000)"><path stroke-width="2.666670083999634" d="M.0,.0L.0,75.3L64.2,75.3L64.2,303.5" stroke="#c00000" fill="none"/><path stroke-width="1" d="M69.1,303.5L64.2,313.3L59.3,303.5L69.1,303.5" stroke-linecap="round" fill="#c00000" stroke="#c00000"/></g><g id="shape32" transform="translate(385.757000,252.750000)"><path stroke-width="2.666670083999634" d="M.0,.0L.0,75.3L-129.5,75.3L-129.5,303.5" stroke="#c00000" fill="none"/><path stroke-width="1" d="M-124.6,303.5L-129.5,313.3L-134.4,303.5L-124.6,303.5" stroke-linecap="round" fill="#c00000" stroke="#c00000"/></g><g id="shape33" transform="translate(1002.000000,359.000000)"><path stroke-width="2.666670083999634" d="M.0,.0L.0,28.0L-279.0,28.0C-279.0,24.7,-281.7,22.0,-285.0,22.0C-288.3,22.0,-291.0,24.7,-291.0,28.0L-567.0,28.0L-567.0,245.0L-584.9,245.0" stroke-dasharray="29.3334,13.3334" stroke="#467dfe" fill="none"/><path stroke-width="1" d="M-584.9,249.9L-594.7,245.0L-584.9,240.1L-584.9,249.9" stroke-linecap="round" fill="#467dfe" stroke="#467dfe"/></g><g id="shape34" transform="translate(397.766000,850.000000)"><path stroke-width="1" d="M.0,.0L188.2,.0L188.2,-236.5L279.2,-236.5C279.2,-239.8,281.9,-242.5,285.2,-242.5C288.5,-242.5,291.2,-239.8,291.2,-236.5L295.2,-236.5" stroke="#191919" fill="none"/><path stroke-width="1" d="M295.2,-239.5L301.2,-236.5L295.2,-233.5L295.2,-239.5" stroke-linecap="round" fill="#191919" stroke="#191919"/></g><g id="shape35" transform="translate(397.766000,850.000000)"><path stroke-width="2.666670083999634" d="M.0,.0L273.2,.0L273.2,-48.6L291.4,-48.6" stroke="#c00000" fill="none"/><path stroke-width="1" d="M291.4,-53.5L301.2,-48.6L291.4,-43.8L291.4,-53.5" stroke-linecap="round" fill="#c00000" stroke="#c00000"/></g><g id="shape36" transform="translate(187.257000,252.750000)"><path stroke-width="2.666670083999634" d="M.0,.0L.0,211.0L63.0,211.0C63.0,207.7,65.7,205.0,69.0,205.0C72.3,205.0,75.0,207.7,75.0,211.0L241.7,211.0C241.7,207.7,244.4,205.0,247.7,205.0C251.1,205.0,253.7,207.7,253.7,211.0L363.7,211.0C363.7,207.7,366.4,205.0,369.7,205.0C373.1,205.0,375.7,207.7,375.7,211.0L495.7,211.0L495.7,454.5L513.9,454.5" stroke="#c00000" fill="none"/><path stroke-width="1" d="M513.9,449.6L523.7,454.5L513.9,459.4L513.9,449.6" stroke-linecap="round" fill="#c00000" stroke="#c00000"/></g><g id="shape37" transform="translate(892.000000,801.350000)"><path stroke-width="1" d="M.0,.0L42.9,.0L42.9,-50.9" stroke="#191919" fill="none"/><path stroke-width="1" d="M39.9,-50.9L42.9,-56.9L45.9,-50.9L39.9,-50.9" stroke-linecap="round" fill="#191919" stroke="#191919"/></g><g id="shape38" transform="translate(937.344000,668.500000)"><path stroke-width="1" d="M.0,-4.0L.0,-56.5L-38.4,-56.5L-38.4,-55.0L-45.3,-55.0" stroke="#191919" fill="none"/><path stroke-width="1" d="M4.0,-4.0L.0,.0L-4.0,-4.0L4.0,-4.0" stroke-linecap="round" fill="#191919" stroke="#191919"/></g><g id="shape39" transform="translate(1038.500000,772.000000)"><path stroke-width="2.666670083999634" d="M.0,.0L.0,136.0L-539.5,136.0L-539.5,212.0L-590.0,212.0L-590.0,223.2" stroke="#c00000" fill="none"/><path stroke-width="1" d="M-585.1,223.2L-590.0,233.0L-594.9,223.2L-585.1,223.2" stroke-linecap="round" fill="#c00000" stroke="#c00000"/></g><g id="shape40" transform="translate(1038.500000,772.000000)"><path stroke-width="2.666670083999634" d="M.0,.0L.0,136.0L-306.5,136.0L-306.5,223.2" stroke="#c00000" fill="none"/><path stroke-width="1" d="M-301.6,223.2L-306.5,233.0L-311.4,223.2L-301.6,223.2" stroke-linecap="round" fill="#c00000" stroke="#c00000"/></g><g id="shape41" transform="translate(448.513000,1081.000000)"><path stroke-width="1" d="M.0,.0L.0,31.0" stroke="#191919" fill="none"/><path stroke-width="1" d="M3.0,31.0L.0,37.0L-3.0,31.0L3.0,31.0" stroke-linecap="round" fill="#191919" stroke="#191919"/></g><g id="shape42" transform="translate(626.000000,1043.000000)"><path stroke-width="1" d="M.0,.0L-55.0,.0L-55.0,113.0L-75.0,113.0" stroke="#191919" fill="none"/><path stroke-width="1" d="M-75.0,116.0L-81.0,113.0L-75.0,110.0L-75.0,116.0" stroke-linecap="round" fill="#191919" stroke="#191919"/></g><g id="shape43" transform="translate(545.000000,1179.420000)"><path stroke-width="1" d="M.0,.0L78.5,.0" stroke="#191919" fill="none"/><path stroke-width="1" d="M78.5,-3.0L84.5,.0L78.5,3.0L78.5,-3.0" stroke-linecap="round" fill="#191919" stroke="#191919"/></g><g id="shape44" transform="translate(717.000000,359.000000)"><path stroke-width="2.666670083999634" d="M.0,.0L.0,49.5L-160.0,49.5L-160.0,468.9L-309.4,468.9" stroke-dasharray="29.3334,13.3334" stroke="#467dfe" fill="none"/><path stroke-width="1" d="M-309.4,473.8L-319.2,468.9L-309.4,464.0L-309.4,473.8" stroke-linecap="round" fill="#467dfe" stroke="#467dfe"/></g><g id="shape45" transform="translate(834.500000,1156.000000)"><path stroke-width="2.666670083999634" d="M.0,.0L53.5,.0L53.5,91.0L-796.5,91.0L-796.5,-420.0L-706.0,-420.0" stroke="#c00000" fill="none"/><path stroke-width="1" d="M-706.0,-424.9L-696.2,-420.0L-706.0,-415.1L-706.0,-424.9" stroke-linecap="round" fill="#c00000" stroke="#c00000"/></g><g id="shape46" transform="translate(964.000000,714.768000)"><path stroke-width="1" d="M.0,.0L2.0,.0L13.0,-0.8L21.0,-0.8" stroke="#191919" fill="none"/><path stroke-width="1" d="M21.0,-3.8L27.0,-0.8L21.0,2.2L21.0,-3.8" stroke-linecap="round" fill="#191919" stroke="#191919"/></g><g id="group47" transform="translate(946.939700,772.000000)"><path d="M.0,.0L1.7,.0L1.7,3.4L.0,3.4L.0,.0z" id="shape48" fill="#ffffff" transform="translate(8.935621,1.702020)" fill-rule="nonzero"/><g id="group49" transform="translate(2.978600,0.000000)"><path stroke-width="1" d="M.0,71.1L.0,60.4L1.7,56.2L1.7,6.8L.0,6.8L.0,.0L25.5,.0L34.0,8.5L34.0,56.2L35.7,60.4L35.7,71.1L.0,71.1z" id="shape50" fill="#959595" stroke="#000000" transform="translate(5.957100,0.000000)" fill-rule="nonzero"/><path stroke-width="1" d="M.0,1.7C.0,.8,.8,.0,1.7,.0C2.6,.0,3.4,.8,3.4,1.7L3.4,27.2C3.4,28.2,2.6,28.9,1.7,28.9C.8,28.9,.0,28.2,.0,27.2L.0,1.7z" id="shape51" fill="#ffffff" stroke="#000000" transform="translate(9.361180,17.871200)" fill-rule="nonzero"/><path stroke-width="1" d="M.0,1.7C.0,.8,.8,.0,1.7,.0C2.6,.0,3.4,.8,3.4,1.7L3.4,27.2C3.4,28.2,2.6,28.9,1.7,28.9C.8,28.9,.0,28.2,.0,27.2L.0,1.7z" id="shape52" fill="#ffffff" stroke="#000000" transform="translate(34.891380,17.871200)" fill-rule="nonzero"/><path stroke-width="1" d="M34.0,59.6L34.0,82.5L1.7,82.5L1.7,59.6C1.7,53.2,8.5,48.5,8.5,48.5L8.5,10.2L14.9,10.2L11.0,4.5C10.5,3.8,9.7,3.4,8.9,3.4L.0,3.4L.0,.0L9.2,.0C11.1,.0,13.0,1.0,14.1,2.6L19.1,10.2L27.2,10.2L27.2,48.5C27.2,48.5,34.0,53.2,34.0,59.6z" id="shape53" fill="#ffffff" stroke="#000000" transform="translate(5.957100,1.702000)" fill-rule="nonzero"/><g id="group54" transform="translate(41.273970,7.233570)"><path stroke-width="1" d="M.0,.0L3.8,.0" id="shape55" stroke="#000000" fill="none" transform="translate(0.000000,2.127525)"/><path stroke-width="1" d="M.0,4.3L2.1,2.1L.0,.0" id="shape56" stroke="#000000" fill="none" transform="translate(2.127530,0.000000)"/></g><g id="group57" transform="translate(0.000000,60.847270)"><path stroke-width="1" d="M.0,.0L3.8,.0" id="shape58" stroke="#000000" fill="none" transform="translate(0.000000,2.127525)"/><path stroke-width="1" d="M.0,4.3L2.1,2.1L.0,.0" id="shape59" stroke="#000000" fill="none" transform="translate(2.127530,0.000000)"/></g><path stroke-width="1" d="M.0,.0L1.7,.0L1.7,6.8L.0,6.8L.0,.0z" id="shape60" stroke="#000000" fill="none" transform="translate(5.957089,0.000000)"/><path stroke-width="1" d="M.0,.0L.0,6.8" id="shape61" stroke="#000000" fill="none" transform="translate(9.361105,0.000000)"/><path stroke-width="1" d="M.0,.0L.0,1.7" id="shape62" stroke="#000000" fill="none" transform="translate(11.063095,0.000000)"/><path stroke-width="1" d="M3.4,.0L3.4,1.7L.0,1.7" id="shape63" stroke="#000000" fill="none" transform="translate(7.659070,5.106061)"/><path stroke-width="1" d="M.0,.0L7.8,.0L7.8,2.4L.0,2.4L.0,.0z" id="shape64" fill="#ffffff" stroke="#000000" transform="matrix(0.707107,-0.707107,0.707107,0.707107,28.089406,7.609960)" fill-rule="nonzero"/><path stroke-width="1" d="M.0,8.9L8.9,.0" id="shape65" stroke="#000000" fill="none" transform="translate(25.530290,2.978520)"/><path stroke-width="1" d="M4.7,.0L.0,.0" id="shape66" stroke="#000000" fill="none" transform="translate(2.978520,3.404035)"/></g><path stroke-width="1" d="M32.3,.0L32.3,3.8L.0,3.8L.0,.0C1.7,.0,2.8,1.7,4.1,1.7C5.4,1.7,6.9,.0,8.2,.0C9.4,.0,11.0,1.7,12.3,1.7C13.5,1.7,15.1,.0,16.3,.0C17.6,.0,19.1,1.7,20.4,1.7C21.7,1.7,23.2,.0,24.5,.0C25.8,.0,27.3,1.7,28.6,1.7C29.9,1.7,30.6,.0,32.3,.0z" id="shape67" stroke="#000000" fill="none" transform="translate(10.637600,80.420530)"/><g id="group68" transform="translate(17.871190,12.765130)"><path stroke-width="1" d="M17.1,.9L17.1,.0L11.1,.0L11.1,.9C11.8,.9,12.4,1.5,12.4,2.3C12.4,3.1,11.7,3.8,10.9,3.8C10.1,3.8,9.5,3.2,9.4,2.6L7.7,2.6C7.6,3.2,7.0,3.8,6.2,3.8C5.4,3.8,4.7,3.1,4.7,2.3C4.7,1.5,5.3,.9,6.0,.9L6.0,.0L.0,.0L.0,.9L.9,.9L.9,6.0L.0,6.0L.0,17.4L.4,17.4L1.7,16.2L4.3,16.2L5.1,17.0L11.9,17.0L12.8,16.2L15.3,16.2L16.7,17.4L17.1,17.4L17.1,6.0L16.3,6.0L16.3,.9L17.1,.9z" id="shape69" fill="#e9e9e9" stroke="#000000" transform="translate(0.340400,0.000000)" fill-rule="nonzero"/><path stroke-width="1" d="M1.3,.0L2.1,.0C2.1,.0,3.0,.0,3.0,.9C3.0,1.7,2.1,1.7,2.1,1.7L.0,1.7" id="shape70" stroke="#000000" fill="none" transform="translate(0.000000,0.851008)"/><path stroke-width="1" d="M1.3,1.7L2.1,1.7C2.1,1.7,3.0,1.7,3.0,.9C3.0,.0,2.1,.0,2.1,.0L.0,.0" id="shape71" stroke="#000000" fill="none" transform="translate(0.000000,4.255058)"/><path stroke-width="1" d="M1.7,1.7L.9,1.7C.9,1.7,.0,1.7,.0,.9C.0,.0,.9,.0,.9,.0L3.0,.0" id="shape72" stroke="#000000" fill="none" transform="translate(14.892730,4.255058)"/><path stroke-width="1" d="M1.7,.0L.9,.0C.9,.0,.0,.0,.0,.9C.0,1.7,.9,1.7,.9,1.7L3.0,1.7" id="shape73" stroke="#000000" fill="none" transform="translate(14.892730,0.851008)"/><path stroke-width="1" d="M.0,4.3L2.1,4.3L4.7,.0L13.2,.0L15.7,4.3L17.9,4.3" id="shape74" stroke="#000000" fill="none" transform="translate(0.000000,5.957090)"/></g><g id="group75" transform="translate(14.961800,52.762700)"><path stroke-width="1" d="M22.9,15.7C23.4,16.3,23.8,17.1,23.7,17.9C22.9,22.9,17.9,26.8,11.8,26.8C5.8,26.8,.8,22.9,.0,17.9C.0,17.1,.2,16.3,.8,15.7L3.3,13.2L3.3,8.5C3.3,3.8,7.2,.0,11.8,.0C16.5,.0,20.4,3.8,20.4,8.5L20.4,13.2L22.9,15.7z" id="shape76" fill="#e9e9e9" stroke="#000000" fill-rule="nonzero"/><path d="M3.4,1.7C3.4,2.6,2.6,3.4,1.7,3.4C.8,3.4,.0,2.6,.0,1.7C.0,.8,.8,.0,1.7,.0C2.6,.0,3.4,.8,3.4,1.7z" id="shape77" fill="#000000" transform="translate(10.142980,13.616180)" fill-rule="nonzero"/></g><g id="group78" transform="translate(18.296710,20.424300)"><path stroke-width="1" d="M17.0,32.3C17.0,34.0,17.0,43.4,17.0,43.4L12.4,43.4C11.7,44.9,10.3,46.0,8.5,46.0C6.7,46.0,5.3,44.9,4.6,43.4L.0,43.4C.0,43.4,.0,33.6,.0,32.3C.0,31.1,1.1,30.5,2.1,29.8C3.4,28.9,6.8,27.2,6.8,25.1L6.8,8.2C5.3,7.5,4.3,6.0,4.3,4.3C4.3,1.9,6.1,.0,8.5,.0C10.9,.0,12.8,1.9,12.8,4.3C12.8,6.0,11.7,7.5,10.2,8.2L10.2,25.1C10.2,27.2,13.6,28.9,14.9,29.8C16.0,30.5,17.0,30.6,17.0,32.3z" id="shape79" fill="#e9e9e9" stroke="#000000" fill-rule="nonzero"/><path stroke-width="1" d="M.0,.0L2.1,.0L2.1,9.4L6.4,9.4C6.7,10.2,7.6,10.8,8.5,10.8C9.4,10.8,10.3,10.2,10.6,9.4L14.9,9.4L14.9,.0L17.0,.0" id="shape80" fill="#e9e9e9" stroke="#000000" transform="translate(0.000000,32.338390)" fill-rule="nonzero"/><path stroke-width="1" d="M5.1,2.6C5.1,4.0,4.0,5.1,2.6,5.1C1.1,5.1,.0,4.0,.0,2.6C.0,1.1,1.1,.0,2.6,.0C4.0,.0,5.1,1.1,5.1,2.6z" id="shape81" stroke="#000000" fill="none" transform="translate(5.957060,1.702020)"/><path stroke-width="1" d="M1.7,.9C1.7,1.3,1.3,1.7,.9,1.7C.4,1.7,.0,1.3,.0,.9C.0,.4,.4,.0,.9,.0C1.3,.0,1.7,.4,1.7,.9z" id="shape82" stroke="#000000" fill="none" transform="translate(7.659081,3.404040)"/><path stroke-width="1" d="M.0,.0L.0,1.3" id="shape83" stroke="#000000" fill="none" transform="translate(8.510095,2.127531)"/><path stroke-width="1" d="M.0,.0L.0,1.3" id="shape84" stroke="#000000" fill="none" transform="translate(8.510095,5.106061)"/><path stroke-width="1" d="M.0,.0L.0,1.3" id="shape85" stroke="#000000" fill="none" transform="translate(8.510095,5.106061)"/><path stroke-width="1" d="M1.3,.0L.0,.0" id="shape86" stroke="#000000" fill="none" transform="translate(9.361103,4.255065)"/><path stroke-width="1" d="M1.3,.0L.0,.0" id="shape87" stroke="#000000" fill="none" transform="translate(6.382573,4.255065)"/><path stroke-width="1" d="M8.5,4.3C8.5,6.6,6.6,8.5,4.3,8.5C1.9,8.5,.0,6.6,.0,4.3C.0,1.9,1.9,.0,4.3,.0C6.6,.0,8.5,1.9,8.5,4.3z" id="shape88" stroke="#000000" fill="none" transform="translate(4.255040,32.338450)"/><path stroke-width="1" d="M.0,.0L.0,8.5" id="shape89" stroke="#000000" fill="none" transform="translate(8.510095,32.338450)"/><path stroke-width="1" d="M8.5,.0L.0,.0" id="shape90" stroke="#000000" fill="none" transform="translate(4.255040,36.593495)"/><path stroke-width="1" d="M.9,.0L.0,.9" id="shape91" stroke="#000000" fill="none" transform="translate(9.105795,2.723233)"/><path stroke-width="1" d="M.9,.0L.0,.9" id="shape92" stroke="#000000" fill="none" transform="translate(6.978275,4.850773)"/><path stroke-width="1" d="M.9,.0L.0,.9" id="shape93" stroke="#000000" fill="none" transform="translate(6.978275,4.850773)"/><path stroke-width="1" d="M.9,.9L.0,.0" id="shape94" stroke="#000000" fill="none" transform="translate(9.105795,4.850773)"/><path stroke-width="1" d="M.9,.9L.0,.0" id="shape95" stroke="#000000" fill="none" transform="translate(6.978275,2.723233)"/><path d="M3.4,1.7C3.4,2.6,2.6,3.4,1.7,3.4C.8,3.4,.0,2.6,.0,1.7C.0,.8,.8,.0,1.7,.0C2.6,.0,3.4,.8,3.4,1.7z" id="shape96" fill="#000000" transform="translate(6.808070,34.891480)" fill-rule="nonzero"/><path stroke-width="1" d="M.0,.0L2.1,.0" id="shape97" stroke="#000000" fill="none" transform="translate(0.000000,34.040395)"/><path stroke-width="1" d="M2.1,.0L.0,.0" id="shape98" stroke="#000000" fill="none" transform="translate(14.892640,34.040395)"/></g><path stroke-width="1" d="M8.9,.0L.0,.0" id="shape99" stroke="#000000" fill="none" transform="translate(0.000000,67.229795)"/><g id="group100" transform="translate(0.000000,0.425500)"><path stroke-width="1" d="M.0,.0L6.0,.0" id="shape101" stroke="#000000" fill="none" transform="translate(0.000010,2.978535)"/><path stroke-width="1" d="M.0,.0L4.3,3.0L.0,6.0" id="shape102" stroke="#000000" fill="none" transform="translate(2.127520,0.000000)"/></g><path stroke-width="1" d="M10.6,.0L.0,.0" id="shape103" stroke="#000000" fill="none" transform="translate(40.423000,5.957075)"/><g id="group104" transform="translate(43.827000,48.082060)"><path stroke-width="1" d="M6.8,.0L.0,.0" id="shape105" stroke="#000000" fill="none" transform="translate(0.425510,2.978535)"/><path stroke-width="1" d="M4.3,6.0L.0,3.0L4.3,.0" id="shape106" stroke="#000000" fill="none"/></g></g><g id="group107" transform="translate(23.709100,612.000500)"><path stroke-width="1" d="M1.5,39.5C-3.1,32.9,3.9,24.9,9.0,25.2C3.4,20.5,7.9,6.4,18.0,9.9C16.6,3.3,34.8,-4.4,38.3,4.1C50.6,-8.4,72.4,10.9,66.4,17.0C73.4,17.8,85.0,34.5,75.1,39.5C80.0,51.4,62.5,57.7,51.3,53.4C49.8,53.5,49.7,60.6,45.5,65.0C44.6,67.4,39.1,66.9,38.3,64.7C38.5,62.1,38.5,54.7,35.4,53.7C30.2,56.2,22.9,55.1,18.9,49.8C8.0,54.8,1.5,48.3,1.5,39.5z" id="shape108" fill="#e85464" stroke="#ffffff" transform="translate(2.637800,39.265900)" fill-rule="nonzero"/><path stroke-width="1" d="M10.9,34.6C2.7,42.6,-3.8,32.9,2.5,25.5M42.1,24.3C36.2,20.3,41.1,15.4,38.2,12.9C35.3,10.5,27.7,9.0,25.2,15.1C24.3,17.6,25.6,27.2,31.9,26.9M30.6,46.5C40.2,43.7,34.1,30.7,24.5,35.8M6.9,30.9C9.6,20.5,27.3,23.4,24.2,35.7M57.4,21.5C66.6,20.4,69.5,31.7,63.8,31.6C55.8,31.1,45.7,35.8,45.9,45.9M54.0,15.9C57.3,8.4,47.6,3.2,43.2,5.1C40.1,-4.0,19.1,-0.6,19.1,12.6" stroke-linecap="round" id="shape109" stroke="#ffffff" fill="none" transform="translate(7.874300,46.065400)"/><path d="M16.4,7.8L22.3,.0L23.3,6.7L33.6,4.6L29.2,14.9L34.2,18.7L27.4,17.5L30.3,23.7L21.8,20.3L14.3,24.2L14.8,16.3L.0,19.0L14.2,13.3L9.7,5.6L16.4,7.8z" id="shape110" fill="#fcf384" transform="matrix(0.866025,-0.500000,0.500000,0.866025,39.967314,74.355919)" fill-rule="nonzero"/><path d="M18.1,15.2C18.1,15.2,23.4,20.5,24.3,21.7C22.5,20.9,18.1,18.2,16.2,17.8C14.8,23.1,14.1,30.9,13.5,32.5C13.1,30.3,11.8,19.7,10.6,17.7C9.9,17.8,5.4,21.7,3.8,22.7C4.7,20.7,6.8,17.2,8.1,14.6C4.6,14.2,3.3,13.8,.0,13.4C3.2,12.6,8.3,11.1,8.3,11.1C8.3,11.1,5.2,6.5,3.5,4.4C5.9,5.5,11.4,8.3,11.4,8.3C11.4,8.3,12.2,3.5,13.0,.0C14.0,4.0,16.4,8.4,16.4,8.4C16.4,8.4,21.4,6.1,24.5,4.9C22.5,7.5,18.4,11.8,18.4,11.8C18.4,11.8,23.2,12.9,25.8,13.6C20.9,14.8,18.1,15.2,18.1,15.2z" id="shape111" fill="#ffaf00" transform="matrix(0.866025,-0.500000,0.500000,0.866025,-5.276603,50.206338)" fill-rule="nonzero"/><path d="M11.1,.0L.0,29.4L12.6,41.7L.0,58.6L26.3,44.1L17.6,29.6L31.4,18.4L11.1,.0z" id="shape112" fill="#ffec00" transform="translate(48.505700,0.000000)" fill-rule="nonzero"/></g><g id="shape113" transform="translate(114.766100,1222.000000)"><path d="M.0,.0L130.1,.0L130.1,50.0L.0,50.0L.0,.0z" fill="#ffff00" fill-rule="nonzero"/><text style="fill:#ffffff;font-family:Times New Roman,PingFang SC,Mircrosoft YaHei,Arial;font-size:14.00pt;font-weight:bold" xml:space="preserve"><tspan y="20.0" style="fill:#000000;font-family:Times New Roman,PingFang SC,Mircrosoft YaHei,Arial" x="5.5">Policy Optimiz</tspan><tspan y="43.0" style="fill:#000000;font-family:Times New Roman,PingFang SC,Mircrosoft YaHei,Arial" x="44.5">ation</tspan></text></g><path stroke-width="0.3333329856395721" d="M9.4,.0C15.6,.0,19.0,5.2,19.0,5.2L18.8,32.0C18.8,32.0,15.5,26.3,9.4,26.3C3.3,26.3,.0,31.6,.0,31.6L.0,5.2C-0.2,5.2,3.1,.0,9.4,.0zM1.1,6.2L1.1,28.6C1.1,28.6,4.1,24.8,9.5,24.8C14.9,24.8,17.7,28.9,17.7,28.9L17.9,6.2C17.9,6.2,14.7,1.4,9.2,1.4C3.7,1.4,.9,6.2,1.1,6.2zM28.6,.0C22.3,.0,19.0,5.2,19.0,5.2L18.8,32.0C18.8,32.0,22.5,26.3,28.6,26.3C34.7,26.3,38.0,31.6,38.0,31.6L38.0,5.2C38.2,5.2,34.8,.0,28.6,.0zM36.9,6.2L36.9,28.6C36.9,28.6,33.9,24.8,28.5,24.8C23.1,24.8,20.0,29.0,20.0,29.0L20.0,6.2C20.0,6.2,23.2,1.4,28.8,1.4C34.3,1.4,37.1,6.2,36.9,6.2z" id="shape114" fill="#ffff00" stroke="#ffff00" transform="translate(612.763000,116.000000)" fill-rule="nonzero"/><g id="shape115" transform="translate(415.847200,560.000000)"><path stroke-width="1" d="M.0,.0L65.3,.0L65.3,35.0L.0,35.0L.0,.0z" fill="#ffff00" stroke="#122759" fill-rule="nonzero"/><text style="fill:#191919;font-family:B Titr,PingFang SC,Mircrosoft YaHei,Arial;font-size:8.00pt" xml:space="preserve"><tspan y="21.5" style="font-family:B Titr,PingFang SC,Mircrosoft YaHei,Arial" x="9.2">Add Noise</tspan></text></g><g id="shape116" transform="translate(423.000200,803.750000)"><path d="M.0,.0L70.8,.0L70.8,33.5L.0,33.5L.0,.0z" fill="#ffff00" fill-rule="nonzero"/><text style="fill:#ffffff;font-family:Segoe UI,PingFang SC,Mircrosoft YaHei,Arial;font-size:9.00pt" xml:space="preserve"><tspan y="21.3" style="font-family:Segoe UI,PingFang SC,Mircrosoft YaHei,Arial" x="6.9">Scale Limit</tspan></text></g></g></svg>